<svg xmlns="http://www.w3.org/2000/svg" xmlns:svg="http://www.w3.org/2000/svg" id="svg4057" width="167.7" height="18.6" x="0" y="0" version="1.1" viewBox="-21 39.4 167.7 18.6" xml:space="preserve"><metadata id="metadata3781"/><style id="style3748" type="text/css">.st0{fill:#fb0}.st1{fill:#fff}</style><g id="g3776" transform="translate(-30.859,-43.699999)"><g id="g3772" transform="translate(-40.041,21.699999)"><path id="path3752" d="m 56.2,61.9 h 9.7 c 4.7,0 4.7,2.6 4.1,4.4 -0.6,1.8 -1.8,2.8 -3.4,3.5 1.4,0.5 2.4,1.8 1.5,4.4 -1.3,3.6 -5,5.4 -8.1,5.4 H 49.9 Z m 0.7,13.5 h 3.2 c 1.1,0 2.3,-0.3 2.7,-1.7 0.4,-1 0,-1.6 -1.3,-1.6 h -3.4 z m 2.3,-6.6 h 2.9 c 1.1,0 2,-0.3 2.4,-1.5 0.3,-0.9 -0.3,-1.2 -1.4,-1.2 h -2.9 z" class="st0" style="fill:#fb0"/><path id="path3754" d="M 74.9,61.9 H 89.6 L 88,66.4 h -9.3 l -0.8,2.2 h 8.4 l -1.5,4.2 H 76.4 L 75.7,75 h 9.5 l -1.6,4.5 h -15 z" class="st0" style="fill:#fb0"/><path id="path3756" d="m 94.7,66.4 h -5 l 1.6,-4.5 h 15.4 l -1.6,4.5 h -5 l -4.7,13.2 h -5.5 z" class="st0" style="fill:#fb0"/><path id="path3758" d="m 111.8,61.9 h 5.3 l 0.2,17.7 h -5.6 l 0.2,-2.5 h -5.6 l -1.7,2.5 h -5.5 z m 0.3,11.4 0.3,-5.5 v 0 l -3.7,5.5 z" class="st0" style="fill:#fb0"/><path id="path3760" d="m 125.1,61.9 h 13.7 l -1.6,4.5 H 129 l -0.8,2.2 h 7.1 l -1.5,4.2 h -7.1 l -2.4,6.8 h -5.5 z" class="st1" style="fill:#fff"/><path id="path3762" d="m 140.9,61.9 h 5.5 L 141.7,75 h 7.9 l -1.6,4.5 h -13.3 z" class="st1" style="fill:#fff"/><path id="path3764" d="m 156.2,61.9 h 5.5 l -6.3,17.7 h -5.5 z" class="st1" style="fill:#fff"/><path id="path3766" d="m 172,77.8 c -1.8,1.6 -3.9,2.2 -5.8,2.2 -5.2,0 -7,-4.1 -5.2,-9.1 2.4,-6.8 8.1,-9.5 12.1,-9.5 4.5,0 6.5,2.5 5.8,6.6 h -5.2 c 0.3,-1.3 -0.5,-2.2 -1.8,-2.2 -3.8,0 -5,4 -5.5,5.2 -0.6,1.7 -0.9,4.6 2.4,4.6 1.3,0 2.8,-0.6 3.5,-2 h -2.4 l 1.3,-3.8 h 7.3 l -3.5,9.8 h -3.5 z" class="st1" style="fill:#fff"/><path id="path3768" d="m 184.3,61.9 h 5.5 l -2.2,6.2 h 5.1 l 2.2,-6.2 h 5.5 l -6.3,17.7 h -5.5 l 2.5,-7 H 186 l -2.5,7 H 178 Z" class="st1" style="fill:#fff"/><path id="path3770" d="m 205.6,66.4 h -5 l 1.6,-4.5 h 15.4 l -1.6,4.5 h -5 l -4.7,13.2 h -5.5 z" class="st1" style="fill:#fff"/></g></g></svg>