<svg xmlns="http://www.w3.org/2000/svg" xmlns:svg="http://www.w3.org/2000/svg" xmlns:xlink="http://www.w3.org/1999/xlink" id="svg4057" x="0" y="0" version="1.1" viewBox="-21 39.4 239.9 62.3" xml:space="preserve" style="enable-background:new -21 39.4 239.9 62.3"><style type="text/css">.st0{fill:#fb0}.st1{fill:#fff}</style><g><g><path d="M56.2,61.9h9.7c4.7,0,4.7,2.6,4.1,4.4c-0.6,1.8-1.8,2.8-3.4,3.5c1.4,0.5,2.4,1.8,1.5,4.4 c-1.3,3.6-5,5.4-8.1,5.4H49.9L56.2,61.9z M56.9,75.4h3.2c1.1,0,2.3-0.3,2.7-1.7c0.4-1,0-1.6-1.3-1.6h-3.4L56.9,75.4z M59.2,68.8 h2.9c1.1,0,2-0.3,2.4-1.5c0.3-0.9-0.3-1.2-1.4-1.2h-2.9L59.2,68.8z" class="st0"/><path d="M74.9,61.9h14.7L88,66.4h-9.3l-0.8,2.2h8.4l-1.5,4.2h-8.4L75.7,75h9.5l-1.6,4.5h-15L74.9,61.9z" class="st0"/><path d="M94.7,66.4h-5l1.6-4.5h15.4l-1.6,4.5h-5l-4.7,13.2h-5.5L94.7,66.4z" class="st0"/><path d="M111.8,61.9h5.3l0.2,17.7h-5.6l0.2-2.5h-5.6l-1.7,2.5h-5.5L111.8,61.9z M112.1,73.3l0.3-5.5l0,0l-3.7,5.5 H112.1z" class="st0"/><path d="M125.1,61.9h13.7l-1.6,4.5H129l-0.8,2.2h7.1l-1.5,4.2h-7.1l-2.4,6.8h-5.5L125.1,61.9z" class="st1"/><path d="M140.9,61.9h5.5L141.7,75h7.9l-1.6,4.5h-13.3L140.9,61.9z" class="st1"/><path d="M156.2,61.9h5.5l-6.3,17.7h-5.5L156.2,61.9z" class="st1"/><path d="M172,77.8c-1.8,1.6-3.9,2.2-5.8,2.2c-5.2,0-7-4.1-5.2-9.1c2.4-6.8,8.1-9.5,12.1-9.5c4.5,0,6.5,2.5,5.8,6.6 h-5.2c0.3-1.3-0.5-2.2-1.8-2.2c-3.8,0-5,4-5.5,5.2c-0.6,1.7-0.9,4.6,2.4,4.6c1.3,0,2.8-0.6,3.5-2h-2.4l1.3-3.8h7.3l-3.5,9.8h-3.5 L172,77.8z" class="st1"/><path d="M184.3,61.9h5.5l-2.2,6.2h5.1l2.2-6.2h5.5l-6.3,17.7h-5.5l2.5-7H186l-2.5,7H178L184.3,61.9z" class="st1"/><path d="M205.6,66.4h-5l1.6-4.5h15.4l-1.6,4.5h-5l-4.7,13.2h-5.5L205.6,66.4z" class="st1"/></g><path d="M30.5,84c-4.8-2-8.3-5-11.7-6.3c1.8-0.8,3.5-1.9,4.5-2.9c1.1-1.1,1.5-2.4,1.4-3.7c3.6,2.4,7.8,2.6,10,2.7 c2.2,0.1,4.4,0.6,4.8,1.6c0,0,0.7-12.2-24.4-20.3c0,0,7.5,3.4,9.8,6.1c0,0-2.7-0.2-3.8,1.6c-0.6,0.9-0.7,2.2-0.2,3.7 c-0.4-0.1-0.9-0.1-1.4-0.2l-39.8-22.1l4.2,9l-3.9-1.4l1.2,2.2c0,0,1.7,3.2,5.5,9.9c3,5.3,8.4,7.9,15.6,7.6c0.3,0,0.6,0,0.9,0 c1.8-0.1,4.6-0.4,7.3-0.6c-0.2,1-0.2,2.2,0.1,3.6c0.3,1.6,1,2.7,1.8,3.3c-2.1,1-4.1,3-4.9,5.3c0,0,0,0,0,0c-0.6,1.5-0.8,3.2,0,5.3 c0,0,0,0,0,0c0.1,0.4,0.3,0.8,0.6,1.3c0.2,0.4,0.5,0.8,0.9,1.2c4.4,5.3,15.2,4.4,22,1.6c0.1,0,0.2-0.1,0.3-0.1 c0.5-0.2,1.1-0.5,1.6-0.7c0.1-0.1,0.2-0.1,0.3-0.2c0.6-0.3,1.1-0.6,1.7-0.9c6.7-3.9,9-8.5,9-8.5S37,86.7,30.5,84z M32.2,65.9 c1.9,0.8,4.8,5.6,4.8,5.6c-2.4-0.4-7.3-2-7.8-3.8S30.3,65.1,32.2,65.9z M25.9,89.5c0,0,0.5,1.6-0.1,3.7c-0.7,0.2-1.4,0.3-2.1,0.5 C24.9,92.8,25.9,91.4,25.9,89.5z M-7,59l17.3,9.8c-3.2,0.3-6.5,0.6-8.2,0.7c-2.6,0.1-4.9-0.2-6.9-0.9c-3-1-5.2-3-6.8-5.7 c-2-3.4-3.3-5.9-4.2-7.5l3.6,1.2l-3.6-7.7l31.5,17.4c-0.9,0.1-1.7,0.4-2.5,0.7L-7,59z M11.4,71.3c1.2-5.8,8.7-4,8.7-4 c-2.7,0-4.3,0.7-5.1,1.8c-1.2,1.6,0.3,2.9,0.3,2.9c-0.4-0.1-0.8-0.2-1-0.4c0,0,0,0,0,0.1c0.6,2.3,2.5,2.9,2.5,2.9 c-0.7,0.1-1.3,0-1.8-0.1c0.4,0.9,1,1.6,1.3,1.8c-1.7,0-2.5,0.4-3.1,0.6C11.9,76,10.8,73.8,11.4,71.3z M16.5,84.1 c0,0-2.7,3.4-8.6,3.4c-0.3-1.3-0.2-2.6,0.1-3.8C9.9,84.9,12.7,85.5,16.5,84.1z M11.6,92c2.5-0.6,5.7-2,8.7-5.4c0,0-0.4,3.8-3.2,7.3 c-1.3-0.2-2.6-0.5-3.8-1C12.7,92.6,12.1,92.3,11.6,92z M35.2,88.9c-0.3-0.9-0.5-2.8-0.5-2.8c2.1,0.2,4.6-0.7,4.6-0.7 C37.6,87.6,35.2,88.9,35.2,88.9z" class="st0"/></g></svg>