<svg xmlns="http://www.w3.org/2000/svg" xmlns:xlink="http://www.w3.org/1999/xlink" id="Ebene_1" x="0" y="0" version="1.1" viewBox="-99 43 85 56.7" xml:space="preserve" style="enable-background:new -99 43 85 56.7"><style type="text/css">.st0{fill:#838281}</style><g><path d="M-21.5,60h-2.6v-7c0-1.8-1.5-3.3-3.3-3.3h-63.6c-1.8,0-3.3,1.5-3.3,3.3v37.9c0,1.8,1.5,3.3,3.3,3.3h63.6 c1.8,0,3.3-1.5,3.3-3.3v-6.7h2.6c1.8,0,3.3-1.5,3.3-3.3V63.3C-18.2,61.4-19.7,60-21.5,60L-21.5,60z M-30.6,87.6h-57V56.3h57V87.6z M-30.6,87.6" class="st0"/><path d="M-61.4,61.9L-61.4,61.9l-17.1,15.6l15.8-6.7l5.9,11.2l17.1-15.6L-55.5,73L-61.4,61.9z M-61.4,61.9" class="st0"/></g></svg>