<svg xmlns="http://www.w3.org/2000/svg" xmlns:svg="http://www.w3.org/2000/svg" id="svg130" width="520" height="120" version="1.1" viewBox="0 0 520 120"><metadata id="metadata136"/><linearGradient id="a" x1="896.981" x2="977.743" y1="895.9" y2="895.9" gradientTransform="matrix(0.31920295,0,0,0.31920295,-61.65618,-220.93039)" gradientUnits="userSpaceOnUse"><stop id="stop2" offset="0" stop-color="#0065ac"/><stop id="stop4" offset="1" stop-color="#8dc4ec"/></linearGradient><path id="path7" stroke-miterlimit="10" d="m 238.66911,61.353563 v -17.37745 h -13.84702 v 42.13483 h 25.15638 c -7.53638,-5.91164 -11.30936,-14.71207 -11.30936,-24.75738 z" style="fill:none;stroke:url(#a);stroke-width:.31920296;stroke-miterlimit:10"/><linearGradient id="b" x1="637.035" x2="839.069" y1="895.9" y2="895.9" gradientTransform="matrix(0.31920295,0,0,0.31920295,-61.65618,-220.93039)" gradientUnits="userSpaceOnUse"><stop id="stop9" offset="0" stop-color="#0065ac"/><stop id="stop11" offset="1" stop-color="#8dc4ec"/></linearGradient><path id="path14" stroke-miterlimit="10" d="m 181.0849,43.976113 h -21.46321 c -5.14236,0 -9.39095,1.3886 -12.74258,4.1688 -3.35163,2.7771 -5.03064,6.3298 -5.03064,10.6486 0,4.26459 1.67582,7.74709 5.03064,10.44117 3.35163,2.69407 7.60022,4.04111 12.74258,4.04111 h 42.41888 l -9.93998,12.83834 h 13.91725 v -42.13802 z" style="fill:none;stroke:url(#b);stroke-width:.31920296;stroke-miterlimit:10"/><linearGradient id="c" x1="453.599" x2="611.539" y1="907.557" y2="907.557" gradientTransform="matrix(0.31920295,0,0,0.31920295,-61.65618,-220.93039)" gradientUnits="userSpaceOnUse"><stop id="stop16" offset="0" stop-color="#0065ac"/><stop id="stop18" offset="1" stop-color="#8dc4ec"/></linearGradient><path id="path21" stroke-miterlimit="10" d="m 83.44391,86.110943 h 49.79247 L 108.0353,51.531713 Z" style="fill:none;stroke:url(#c);stroke-width:.31920296;stroke-miterlimit:10"/><linearGradient id="d" x1="1217.797" x2="1378.769" y1="908.56" y2="908.56" gradientTransform="matrix(0.31920295,0,0,0.31920295,-61.65618,-220.93039)" gradientUnits="userSpaceOnUse"><stop id="stop23" offset="0" stop-color="#0065ac"/><stop id="stop25" offset="1" stop-color="#8dc4ec"/></linearGradient><path id="path28" stroke-miterlimit="10" d="m 327.38522,86.742963 35.1219,-0.63202 h 15.6313 l -25.201,-34.57923 z" style="fill:none;stroke:url(#d);stroke-width:.31920296;stroke-miterlimit:10"/><linearGradient id="e" x1="346.475" x2="1776.921" y1="895.769" y2="895.769" gradientTransform="matrix(0.31920295,0,0,0.31920295,-61.65618,-220.93039)" gradientUnits="userSpaceOnUse"><stop id="stop30" offset="0" stop-color="#0063a6"/><stop id="stop32" offset="1" stop-color="#8fc5ec"/></linearGradient><path id="path35" d="m 443.38352,88.208103 11.6414,-14.93231 h -46.8463 v -44.91188 h -18.8042 v 41.04633 l -24.684,-34.24733 c -1.2289,-1.7907 -2.9398,-3.358 -5.12,-4.7018 -2.4068,-1.4556 -4.7274,-2.1834 -6.9682,-2.1834 -2.2951,0 -4.6157,0.7278 -6.9682,2.1834 -2.0716,1.2896 -3.7506,2.8537 -5.037,4.7018 l -22.9826,32.66408 c 0.3702,-2.08439 0.5554,-4.24859 0.5554,-6.47343 v -32.99285 h -18.8043 v 32.99285 c 0,4.86784 -1.8162,8.17159 -5.4456,9.90486 -2.6813,1.34385 -7.1788,2.01417 -13.4895,2.01417 -7.9322,0 -13.1831,-0.44688 -15.7527,-1.34384 -4.804,-1.56729 -7.2044,-5.09129 -7.2044,-10.57839 v -32.98965 h -97.91228 c -10.6901,0 -19.44903,2.742 -26.27678,8.2259 -2.87921,2.3142 -5.15194,4.9285 -6.81499,7.8396 l -6.67772,-9.2664 c -1.22893,-1.7908 -2.93986,-3.3581 -5.12002,-4.7019 -2.40679,-1.4556 -4.72739,-2.1834 -6.9682,-2.1834 -2.29507,0 -4.61567,0.7278 -6.9682,2.1834 -2.06843,1.2896 -3.74744,2.8537 -5.03702,4.7019 L 48.94126,101.72635 h 456.60386 z m -359.93961,-2.09716 24.59139,-34.58243 25.19788,34.58243 z m 122.57393,0 h -13.91725 l 9.93998,-12.83835 H 159.6185 c -5.14236,0 -9.39095,-1.34703 -12.74258,-4.04111 -3.35163,-2.69407 -5.03064,-6.17338 -5.03064,-10.44117 0,-4.322 1.67582,-7.8715 5.03064,-10.6486 3.35163,-2.777 7.60022,-4.1688 12.74258,-4.1688 h 46.39615 v 42.13803 z m 18.80425,0 v -42.13483 h 13.84702 v 17.37745 c 0,10.04531 3.76979,18.84574 11.30936,24.75738 z m 146.94193,0 h -9.2569 l -35.1219,0.63202 25.5522,-35.21445 27.2024,34.58243 z" style="fill:url(#e);stroke-width:.31920296"/><linearGradient id="f" x1="343.589" x2="1790.876" y1="895.769" y2="895.769" gradientTransform="matrix(0.31920295,0,0,0.31920295,-61.65618,-220.93039)" gradientUnits="userSpaceOnUse"><stop id="stop37" offset="0" stop-color="#0065ac"/><stop id="stop39" offset="1" stop-color="#8dc4ec"/></linearGradient><path id="path42" stroke-miterlimit="10" d="m 443.38352,88.208103 11.6414,-14.93231 h -46.8463 v -44.91188 h -18.8042 v 41.04633 l -24.684,-34.24733 c -1.2289,-1.7907 -2.9398,-3.358 -5.12,-4.7018 -2.4068,-1.4556 -4.7274,-2.1834 -6.9682,-2.1834 -2.2951,0 -4.6157,0.7278 -6.9682,2.1834 -2.0716,1.2896 -3.7506,2.8537 -5.037,4.7018 l -22.9826,32.66408 c 0.3702,-2.08439 0.5554,-4.24859 0.5554,-6.47343 v -32.99285 h -18.8043 v 32.99285 c 0,4.86784 -1.8162,8.17159 -5.4456,9.90486 -2.6813,1.34385 -7.1788,2.01417 -13.4895,2.01417 -7.9322,0 -13.1831,-0.44688 -15.7527,-1.34384 -4.804,-1.56729 -7.2044,-5.09129 -7.2044,-10.57839 v -32.98965 h -97.91228 c -10.6901,0 -19.44903,2.742 -26.27678,8.2259 -2.87921,2.3142 -5.15194,4.9285 -6.81499,7.8396 l -6.67772,-9.2664 c -1.22893,-1.7908 -2.93986,-3.3581 -5.12002,-4.7019 -2.40679,-1.4556 -4.72739,-2.1834 -6.9682,-2.1834 -2.29507,0 -4.61567,0.7278 -6.9682,2.1834 -2.06843,1.2896 -3.74744,2.8537 -5.03702,4.7019 L 48.94126,101.72635 h 456.60386 z m -359.93961,-2.09716 24.59139,-34.58243 25.19788,34.58243 z m 122.57393,0 h -13.91725 l 9.93998,-12.83835 H 159.6185 c -5.14236,0 -9.39095,-1.34703 -12.74258,-4.04111 -3.35163,-2.69407 -5.03064,-6.17338 -5.03064,-10.44117 0,-4.322 1.67582,-7.8715 5.03064,-10.6486 3.35163,-2.777 7.60022,-4.1688 12.74258,-4.1688 h 46.39615 v 42.13803 z m 18.80425,0 v -42.13483 h 13.84702 v 17.37745 c 0,10.04531 3.76979,18.84574 11.30936,24.75738 z m 146.94193,0 h -9.2569 l -35.1219,0.63202 25.5522,-35.21445 27.2024,34.58243 z" style="fill:none;stroke:url(#f);stroke-width:.95760888;stroke-miterlimit:10"/><g id="g128" transform="matrix(0.31920295,0,0,0.31920295,-61.65618,-220.93039)"><linearGradient id="g" x1="342.045" x2="343.203" y1="1015.499" y2="1015.499" gradientUnits="userSpaceOnUse"><stop id="stop44" offset="0" stop-color="#009bdb"/><stop id="stop46" offset="1" stop-color="#87c1eb"/></linearGradient><linearGradient id="h" x1="340.908" x2="344.266" y1="1015.552" y2="1015.552" gradientUnits="userSpaceOnUse"><stop id="stop49" offset="0" stop-color="#075c84"/><stop id="stop51" offset="1" stop-color="#009bdb"/></linearGradient><path id="path54" stroke-miterlimit="10" d="m 343.2,1016.1 c -0.4,-0.4 -0.78,-0.81 -1.16,-1.21 0.68,0.79 1.16,1.21 1.16,1.21 z" style="fill:url(#g);stroke:url(#h);stroke-width:3;stroke-miterlimit:10"/><linearGradient id="i" x1="333.669" x2="539.432" y1="963.752" y2="963.752" gradientUnits="userSpaceOnUse"><stop id="stop56" offset="0" stop-color="#009bdb"/><stop id="stop58" offset="1" stop-color="#87c1eb"/></linearGradient><linearGradient id="j" x1="332.169" x2="540.932" y1="963.514" y2="963.514" gradientUnits="userSpaceOnUse"><stop id="stop61" offset="0" stop-color="#075c84"/><stop id="stop63" offset="1" stop-color="#009bdb"/></linearGradient><path id="path66" stroke-miterlimit="10" d="m 510.01,932.98 c 2.12,5.82 7.69,9.98 14.25,9.98 8.38,0 15.18,-6.79 15.18,-15.18 0,-8.39 -6.79,-15.18 -15.18,-15.18 -7.68,0 -14.02,5.72 -15.02,13.12 -33.31,5.18 -216.51,36.38 -167.19,89.17 -6.47,-7.5 -31.04,-48.55 167.96,-81.91 z m 14.25,-14.12 c 4.93,0 8.92,4 8.92,8.92 0,4.92 -4,8.92 -8.92,8.92 -4.93,0 -8.92,-4 -8.92,-8.92 0,-4.92 3.99,-8.92 8.92,-8.92 z" style="fill:url(#i);stroke:url(#j);stroke-width:3;stroke-miterlimit:10"/><linearGradient id="k" x1="335.715" x2="343.203" y1="1013.462" y2="1013.462" gradientUnits="userSpaceOnUse"><stop id="stop68" offset="0" stop-color="#009bdb"/><stop id="stop70" offset="1" stop-color="#87c1eb"/></linearGradient><linearGradient id="l" x1="334.794" x2="344.042" y1="1013.5" y2="1013.5" gradientUnits="userSpaceOnUse"><stop id="stop73" offset="0" stop-color="#075c84"/><stop id="stop75" offset="1" stop-color="#009bdb"/></linearGradient><path id="path78" stroke-miterlimit="10" d="m 335.71,1010.82 c 4.35,3.38 7.49,5.28 7.49,5.28 -2.63,-1.78 -5.12,-3.54 -7.49,-5.28 z" style="fill:url(#k);stroke:url(#l);stroke-width:3;stroke-miterlimit:10"/><linearGradient id="m" x1="302.211" x2="714.269" y1="927.122" y2="927.122" gradientUnits="userSpaceOnUse"><stop id="stop80" offset="0" stop-color="#009bdb"/><stop id="stop82" offset="1" stop-color="#87c1eb"/></linearGradient><linearGradient id="n" x1="300.711" x2="715.769" y1="926.976" y2="926.976" gradientUnits="userSpaceOnUse"><stop id="stop85" offset="0" stop-color="#075c84"/><stop id="stop87" offset="1" stop-color="#009bdb"/></linearGradient><path id="path90" stroke-miterlimit="10" d="m 699.09,843.42 c -7.28,0 -13.35,5.12 -14.83,11.96 -37.34,2.47 -510.03,36.32 -348.55,155.44 -29.63,-23.04 -115.56,-115 349.53,-146.03 2.37,5.29 7.67,8.99 13.85,8.99 8.38,0 15.18,-6.79 15.18,-15.18 0,-8.39 -6.8,-15.18 -15.18,-15.18 z m 0,24.1 c -4.93,0 -8.92,-4 -8.92,-8.92 0,-4.92 4,-8.92 8.92,-8.92 4.93,0 8.92,4 8.92,8.92 0,4.92 -3.99,8.92 -8.92,8.92 z" style="fill:url(#m);stroke:url(#n);stroke-width:3;stroke-miterlimit:10"/><linearGradient id="o" x1="323.088" x2="343.203" y1="1011.382" y2="1011.382" gradientUnits="userSpaceOnUse"><stop id="stop92" offset="0" stop-color="#009bdb"/><stop id="stop94" offset="1" stop-color="#87c1eb"/></linearGradient><linearGradient id="p" x1="322.361" x2="343.794" y1="1011.42" y2="1011.42" gradientUnits="userSpaceOnUse"><stop id="stop97" offset="0" stop-color="#075c84"/><stop id="stop99" offset="1" stop-color="#009bdb"/></linearGradient><path id="path102" stroke-miterlimit="10" d="m 330.1,1010.33 c -1.9,-0.86 -3.78,-1.72 -5.62,-2.58 3.14,1.52 5.98,2.84 8.46,3.96 6.12,2.89 10.26,4.4 10.26,4.4 -7.34,-3.14 -14.03,-6.29 -20.12,-9.44 2.48,1.36 4.83,2.58 7.02,3.66 z" style="fill:url(#o);stroke:url(#p);stroke-width:3;stroke-miterlimit:10"/><linearGradient id="q" x1="272.404" x2="603.758" y1="896.206" y2="896.206" gradientUnits="userSpaceOnUse"><stop id="stop104" offset="0" stop-color="#009bdb"/><stop id="stop106" offset="1" stop-color="#87c1eb"/></linearGradient><linearGradient id="r" x1="270.904" x2="605.258" y1="896.122" y2="896.122" gradientUnits="userSpaceOnUse"><stop id="stop109" offset="0" stop-color="#075c84"/><stop id="stop111" offset="1" stop-color="#009bdb"/></linearGradient><path id="path114" stroke-miterlimit="10" d="m 575.5,808.6 c 2.64,4.49 7.5,7.51 13.08,7.51 8.38,0 15.18,-6.79 15.18,-15.18 0,-8.39 -6.79,-15.18 -15.18,-15.18 -8.08,0 -14.67,6.32 -15.13,14.29 C 522.84,812.23 136.13,909.98 323.09,1006.67 276.68,980.95 193.48,905.07 575.5,808.6 Z M 588.58,792 c 4.93,0 8.92,4 8.92,8.92 0,4.92 -4,8.92 -8.92,8.92 -4.93,0 -8.92,-4 -8.92,-8.92 0,-4.92 3.99,-8.92 8.92,-8.92 z" style="fill:url(#q);stroke:url(#r);stroke-width:3;stroke-miterlimit:10"/><linearGradient id="s" x1="225.99" x2="541.785" y1="875.965" y2="875.965" gradientUnits="userSpaceOnUse"><stop id="stop116" offset="0" stop-color="#009bdb"/><stop id="stop118" offset="1" stop-color="#87c1eb"/></linearGradient><linearGradient id="t" x1="224.49" x2="543.285" y1="875.909" y2="875.909" gradientUnits="userSpaceOnUse"><stop id="stop121" offset="0" stop-color="#075c84"/><stop id="stop123" offset="1" stop-color="#009bdb"/></linearGradient><path id="path126" stroke-miterlimit="10" d="m 514.36,769.24 v -0.95 c 2.76,3.78 7.21,6.25 12.25,6.25 8.38,0 15.18,-6.79 15.18,-15.18 0,-8.39 -6.79,-15.18 -15.18,-15.18 -8.38,0 -15.18,6.79 -15.18,15.18 0,0.22 0.02,0.43 0.03,0.65 C 471.57,769.1 35.1,889.54 324.48,1007.75 259.05,981.02 92.29,884.29 514.36,769.24 Z m 12.25,-18.8 c 4.93,0 8.92,4 8.92,8.92 0,4.92 -4,8.92 -8.92,8.92 -4.93,0 -8.92,-4 -8.92,-8.92 0,-4.92 3.99,-8.92 8.92,-8.92 z" style="fill:url(#s);stroke:url(#t);stroke-width:3;stroke-miterlimit:10"/></g></svg>